<svg width="130" height="130" viewBox="0 0 130 130" fill="none" xmlns="http://www.w3.org/2000/svg">
<path d="M129.5 65C129.5 100.622 100.622 129.5 65 129.5C29.3776 129.5 0.5 100.622 0.5 65C0.5 29.3776 29.3776 0.5 65 0.5C100.622 0.5 129.5 29.3776 129.5 65Z" fill="#F2F4F7" stroke="#397DFF"/>
<path fill-rule="evenodd" clip-rule="evenodd" d="M65.0001 96.25C82.259 96.25 96.2501 82.2589 96.2501 65C96.2501 47.7411 82.259 33.75 65.0001 33.75C47.7412 33.75 33.7501 47.7411 33.7501 65C33.7501 82.2589 47.7412 96.25 65.0001 96.25Z" fill="#397DFF"/>
<path d="M77.6666 55.5L60.25 72.9167L52.3333 65" stroke="white" stroke-width="3" stroke-linecap="round" stroke-linejoin="round"/>
</svg>
