<svg width="160" height="160" viewBox="0 0 160 160" fill="none" xmlns="http://www.w3.org/2000/svg">
<path d="M159.5 80C159.5 123.907 123.907 159.5 80 159.5C36.0934 159.5 0.5 123.907 0.5 80C0.5 36.0934 36.0934 0.5 80 0.5C123.907 0.5 159.5 36.0934 159.5 80Z" fill="#F2F4F7" stroke="#397DFF"/>
<path fill-rule="evenodd" clip-rule="evenodd" d="M79.9997 118.462C101.241 118.462 118.461 101.242 118.461 80C118.461 58.7583 101.241 41.5385 79.9997 41.5385C58.758 41.5385 41.5382 58.7583 41.5382 80C41.5382 101.242 58.758 118.462 79.9997 118.462Z" fill="#397DFF"/>
<path d="M95.5896 68.3077L74.1538 89.7436L64.4102 80" stroke="white" stroke-width="3" stroke-linecap="round" stroke-linejoin="round"/>
</svg>
