<svg width="24" height="24" viewBox="0 0 24 24" fill="none" xmlns="http://www.w3.org/2000/svg">
<path d="M13.7143 22.7143H10.2857C9.48571 22.7143 8.57143 22.0286 8.57143 20.6572V18.2572C8.57143 17.1143 8 16.0857 7.08571 15.2857C5.02857 13.6857 4 11.4 4 8.88573C4.11429 4.54286 7.65714 1.11429 11.8857 1C14.0571 1 16.1143 1.8 17.6 3.28572C19.0857 4.77143 20 6.82858 20 9.00001C20 11.4 18.9714 13.6857 17.0286 15.1715C16 15.9715 15.4286 17.2286 15.4286 18.3715V21C15.4286 21.9143 14.6286 22.7143 13.7143 22.7143V22.7143ZM12 2.14286C8.34286 2.14286 5.25714 5.22858 5.14286 8.88573C5.14286 11.0572 6.05714 13.1143 7.77143 14.3715C9.02857 15.4 9.71429 16.7715 9.71429 18.2572V20.6572C9.71429 20.8857 9.71429 21.5715 10.2857 21.5715H13.7143C14.0571 21.5715 14.2857 21.3429 14.2857 21V18.3715C14.2857 16.8857 15.0857 15.2857 16.3429 14.2572C17.9429 13 18.8571 11.0572 18.8571 9.00001C18.8571 7.17144 18.1714 5.45715 16.8 4.08572C15.5429 2.82857 13.8286 2.14286 12 2.14286V2.14286Z" fill="#2B2D3A"/>
<path d="M14.8571 19.2857H9.14284C8.79998 19.2857 8.57141 19.0572 8.57141 18.7143C8.57141 18.3715 8.79998 18.1429 9.14284 18.1429H14.8571C15.2 18.1429 15.4286 18.3715 15.4286 18.7143C15.4286 19.0572 15.2 19.2857 14.8571 19.2857Z" fill="#2B2D3A"/>
</svg>
