<svg width="138" height="46" viewBox="0 0 138 46" fill="none" xmlns="http://www.w3.org/2000/svg">
<g clip-path="url(#clip0)">
<path d="M131.975 28.3076H3.56688C1.59695 28.3076 0 29.9046 0 31.8745V38.8946C0 40.8645 1.59694 42.4615 3.56687 42.4615H131.975C133.944 42.4615 135.541 40.8645 135.541 38.8946V31.8745C135.541 29.9046 133.944 28.3076 131.975 28.3076Z" fill="#2D3786"/>
<path d="M30.3185 3.10441H30.0475V3.37537V21.1446V21.4155H30.3185H37.9241C40.4891 21.4155 42.2702 20.834 43.3834 19.2629C44.4754 17.7216 44.8773 15.2851 44.8773 11.714C44.8773 8.62705 44.4577 6.46167 43.3814 5.07026C42.2893 3.65835 40.5732 3.10441 38.1563 3.10441H30.3185ZM34.0911 6.92779H37.9241C38.5225 6.92779 38.9836 6.97416 39.346 7.10355C39.6967 7.22878 39.9615 7.43405 40.1679 7.77597C40.3803 8.12792 40.5374 8.63617 40.6392 9.376C40.7408 10.1136 40.7848 11.0609 40.7848 12.2771C40.7848 13.487 40.7325 14.4272 40.6125 15.1581C40.4923 15.8902 40.3073 16.3914 40.0571 16.7392C39.574 17.4105 38.7783 17.6012 37.3394 17.6012H34.0911V6.92779Z" fill="#3F476B" stroke="#3F476B" stroke-width="0.541906" stroke-miterlimit="10"/>
<path d="M51.1315 13.5443V13.2734H50.8605H47.5078H47.2369V13.5443V15.386C47.2369 17.5593 47.5939 19.1112 48.53 20.1118C49.471 21.1175 50.9351 21.5017 52.9769 21.5017C55.0346 21.5017 56.5371 21.0896 57.5165 20.0787C58.4938 19.07 58.8915 17.5251 58.8915 15.4065V2.65387V2.38292H58.6206H55.0559H54.7849V2.65387V15.4288C54.7849 15.9143 54.7607 16.2906 54.7029 16.5837C54.6454 16.8756 54.5581 17.0668 54.4449 17.1983C54.2237 17.4557 53.8229 17.5756 52.9769 17.5756C52.0363 17.5756 51.6348 17.4447 51.4281 17.1907C51.3218 17.0602 51.2442 16.8702 51.1957 16.577C51.1472 16.283 51.1315 15.9092 51.1315 15.4288V13.5443Z" fill="#3F476B" stroke="#3F476B" stroke-width="0.541906" stroke-miterlimit="10"/>
<path d="M68.7949 9.90406L68.794 9.904C67.8774 9.84622 67.2015 9.77677 66.7013 9.68229C66.1972 9.58707 65.8999 9.4712 65.719 9.33922C65.5527 9.21791 65.4683 9.07113 65.422 8.85563C65.3719 8.62205 65.3706 8.32914 65.3706 7.92083C65.3706 7.39164 65.4335 6.96408 65.7634 6.65023C66.1027 6.32741 66.7876 6.06513 68.2005 6.06513C68.8211 6.06513 69.3024 6.09084 69.6776 6.15681C70.0525 6.22274 70.2998 6.32535 70.4696 6.46312C70.7991 6.73052 70.9344 7.21257 70.9344 8.23173V8.46537V8.73632H71.2053H74.6478H74.9188V8.46537V7.54921C74.9188 5.45284 74.2418 4.12721 73.0023 3.3482C71.7929 2.58817 70.0965 2.38292 68.1383 2.38292C65.857 2.38292 64.1294 2.80295 62.9691 3.72364C61.7955 4.65497 61.251 6.05839 61.251 7.90427C61.251 10.0763 61.8421 11.4851 63.0046 12.374C64.1447 13.2458 65.7854 13.5754 67.7779 13.7265C68.562 13.7861 69.1804 13.853 69.6681 13.9428C70.1579 14.0329 70.4976 14.1431 70.7348 14.2793C70.9636 14.4107 71.0987 14.567 71.1826 14.7663C71.2707 14.9754 71.3098 15.2495 71.3098 15.6272C71.3098 16.4162 71.1859 16.8785 70.8083 17.1745C70.4045 17.491 69.6462 17.6742 68.2005 17.6742C67.4814 17.6742 66.9346 17.6629 66.5126 17.6076C66.0897 17.5521 65.8286 17.4564 65.6554 17.3151C65.4887 17.1791 65.3697 16.9729 65.294 16.6181C65.2171 16.2576 65.1909 15.7723 65.1909 15.1084V14.8748V14.6038H64.92H61.5238H61.2528V14.8748V15.8185C61.2528 18.3778 62.0309 19.8402 63.3533 20.6335C64.6393 21.4049 66.3835 21.5017 68.2023 21.5017C71.0972 21.5017 72.8974 21.0057 73.9613 19.9386C75.0275 18.8693 75.287 17.293 75.287 15.3292C75.287 13.2919 74.6951 11.9712 73.5356 11.1439C72.4025 10.3354 70.7736 10.0358 68.7949 9.90406Z" fill="#3F476B" stroke="#3F476B" stroke-width="0.541906" stroke-miterlimit="10"/>
<path d="M77.3088 6.25378V6.52474H77.5797H82.1762V20.9617V21.2326H82.4471H86.0899H86.3609V20.9617V6.52474H90.9555H91.2265V6.25378V2.92245V2.6515H90.9555H77.5797H77.3088V2.92245V6.25378Z" fill="#3F476B" stroke="#3F476B" stroke-width="0.541906" stroke-miterlimit="10"/>
<path d="M100.653 2.38292C97.838 2.38292 95.94 2.86073 94.7741 4.31781C93.6253 5.75345 93.248 8.07308 93.248 11.5689C93.248 13.5822 93.3229 15.208 93.5316 16.5122C93.7402 17.8157 94.0856 18.8204 94.6427 19.5748C95.7712 21.1031 97.6865 21.5017 100.653 21.5017C103.54 21.5017 105.451 21.0301 106.604 19.473C107.173 18.7041 107.539 17.6934 107.765 16.4011C107.99 15.1085 108.078 13.5159 108.078 11.5689C108.078 8.1118 107.682 5.79374 106.522 4.34857C105.346 2.88293 103.446 2.38292 100.653 2.38292ZM100.653 17.6117C99.8898 17.6117 99.321 17.5854 98.8849 17.4711C98.4644 17.3608 98.1811 17.1724 97.9728 16.8441C97.7546 16.5002 97.604 15.9803 97.512 15.1765C97.4205 14.3768 97.3898 13.3269 97.3898 11.9442C97.3898 10.5075 97.4249 9.43119 97.5218 8.62221C97.6193 7.80873 97.7761 7.29853 97.9958 6.97027C98.2047 6.65822 98.4864 6.48735 98.9062 6.39198C99.342 6.29294 99.9034 6.28037 100.653 6.28037C101.39 6.28037 101.946 6.29408 102.381 6.39436C102.8 6.49104 103.086 6.66386 103.3 6.97869C103.524 7.3087 103.686 7.81995 103.788 8.63158C103.89 9.43908 103.929 10.5127 103.929 11.9442C103.929 13.3172 103.895 14.3622 103.8 15.1597C103.704 15.961 103.549 16.4826 103.328 16.8294C103.115 17.1616 102.828 17.3535 102.407 17.4663C101.972 17.5831 101.407 17.6117 100.653 17.6117Z" fill="#3F476B" stroke="#3F476B" stroke-width="0.541906" stroke-miterlimit="10"/>
<path d="M110.708 3.10441H110.437V3.37537V21.1446V21.4155H110.708H114.237H114.508V21.1446V15.6136H118.279C119.012 15.6136 119.469 15.7621 119.747 16.0238C120.021 16.282 120.176 16.7033 120.176 17.3846V21.1446V21.4155H120.447H123.986H124.257V21.1446V17.1021C124.257 16.139 124.084 15.3343 123.717 14.7109C123.452 14.2614 123.092 13.9161 122.643 13.6764C123.364 13.2377 123.809 12.5809 124.077 11.8429C124.405 10.9388 124.473 9.9028 124.473 8.96862C124.473 7.00248 124.049 5.52021 123.09 4.53275C122.129 3.54355 120.685 3.10441 118.771 3.10441H110.708ZM114.508 11.801V6.92779H118.403C119.234 6.92779 119.682 7.08694 119.944 7.41194C120.223 7.75597 120.357 8.35555 120.357 9.40758C120.357 10.3478 120.193 10.9295 119.884 11.2798C119.584 11.621 119.092 11.801 118.279 11.801H114.508Z" fill="#3F476B" stroke="#3F476B" stroke-width="0.541906" stroke-miterlimit="10"/>
<path d="M138.217 6.85762H138.487V6.58667V3.37537V3.10441H138.217H127.104H126.833V3.37537V21.1446V21.4155H127.104H138.217H138.487V21.1446V17.9387V17.6677H138.217H130.816V14.0196H137.861H138.132V13.7487V10.5428V10.2718H137.861H130.816V6.85762H138.217Z" fill="#3F476B" stroke="#3F476B" stroke-width="0.541906" stroke-miterlimit="10"/>
<path d="M24.9682 12.3846C24.9682 19.2245 19.377 24.7692 12.4821 24.7692C5.58921 24.7692 0 19.2245 0 12.3846C0 5.54468 5.58921 0 12.4821 0C19.377 0 24.9682 5.54468 24.9682 12.3846Z" fill="#397DFF"/>
<path d="M19.616 17.3838C19.6197 18.0364 19.0327 18.5701 18.3208 18.5701L6.65484 18.5769C5.93923 18.5769 5.35407 18.0432 5.35407 17.3923L5.35034 16.789C5.35034 16.1381 5.93737 15.6044 6.65111 15.6044L18.3171 15.5993C19.0327 15.5993 19.6179 16.133 19.6179 16.7839V17.3838H19.616ZM18.2276 13.7894C18.9414 13.7894 19.2079 13.3424 18.8221 12.7935L13.1829 4.83472C12.7953 4.28578 12.1617 4.28578 11.7741 4.83472L6.14609 12.7969C5.75846 13.3458 6.02309 13.7928 6.74243 13.7928L18.2276 13.7894Z" fill="white"/>
<path d="M134.65 31.8461H8.02538C6.05544 31.8461 4.4585 33.4431 4.4585 35.413V42.4331C4.4585 44.403 6.05545 46 8.02538 46H134.65C136.62 46 138.216 44.403 138.216 42.4331V35.413C138.216 33.4431 136.62 31.8461 134.65 31.8461Z" fill="#397DFF"/>
<path d="M33.9661 36.0325H34.8489V40.8478L38.5406 36.0325H39.361V42.2745H38.4871V37.4681L34.7865 42.2745H33.9661V36.0325ZM46.7645 36.0325V42.2745H45.8727V39.4923H42.288V42.2745H41.3963V36.0325H42.288V38.7165H45.8727V36.0325H46.7645ZM51.5914 42.3458C50.9672 42.3458 50.4025 42.2091 49.8972 41.9357C49.3978 41.6562 49.0055 41.2758 48.7201 40.7943C48.4348 40.3068 48.2921 39.7599 48.2921 39.1535C48.2921 38.5471 48.4348 38.0032 48.7201 37.5216C49.0055 37.0342 49.4008 36.6537 49.9061 36.3802C50.4114 36.1008 50.9762 35.9611 51.6004 35.9611C52.0878 35.9611 52.5337 36.0444 52.9379 36.2108C53.3422 36.3713 53.687 36.6121 53.9723 36.9331L53.3927 37.4949C52.9231 37.0015 52.3375 36.7548 51.636 36.7548C51.1723 36.7548 50.7532 36.8588 50.3787 37.0669C50.0042 37.2749 49.7099 37.5633 49.4959 37.9318C49.2878 38.2945 49.1838 38.7017 49.1838 39.1535C49.1838 39.6053 49.2878 40.0155 49.4959 40.3841C49.7099 40.7467 50.0042 41.032 50.3787 41.2401C50.7532 41.4482 51.1723 41.5522 51.636 41.5522C52.3316 41.5522 52.9171 41.3025 53.3927 40.8032L53.9723 41.365C53.687 41.686 53.3392 41.9297 52.929 42.0962C52.5248 42.2626 52.0789 42.3458 51.5914 42.3458ZM59.5096 36.8083H57.3694V42.2745H56.4956V36.8083H54.3643V36.0325H59.5096V36.8083ZM64.4264 40.714H61.1092L60.4225 42.2745H59.5041L62.3308 36.0325H63.2136L66.0493 42.2745H65.113L64.4264 40.714ZM64.1143 40.0006L62.7678 36.942L61.4213 40.0006H64.1143ZM72.3425 36.0325V42.2745H71.4686V36.8083H68.7043L68.6419 38.6363C68.6122 39.4983 68.5408 40.1968 68.4279 40.7318C68.3209 41.2669 68.1485 41.6711 67.9107 41.9446C67.6729 42.2121 67.3519 42.3458 66.9476 42.3458C66.7633 42.3458 66.5761 42.3221 66.3858 42.2745L66.4483 41.4809C66.5434 41.5047 66.6385 41.5165 66.7336 41.5165C66.9892 41.5165 67.1943 41.4155 67.3489 41.2134C67.5035 41.0053 67.6194 40.6962 67.6967 40.286C67.774 39.8758 67.8245 39.3348 67.8483 38.663L67.9463 36.0325H72.3425ZM79.3983 36.0325V42.2745H78.5244V36.8083H75.76L75.6976 38.6363C75.6679 39.4983 75.5966 40.1968 75.4836 40.7318C75.3766 41.2669 75.2042 41.6711 74.9664 41.9446C74.7286 42.2121 74.4076 42.3458 74.0034 42.3458C73.8191 42.3458 73.6318 42.3221 73.4416 42.2745L73.504 41.4809C73.5991 41.5047 73.6942 41.5165 73.7893 41.5165C74.045 41.5165 74.2501 41.4155 74.4046 41.2134C74.5592 41.0053 74.6751 40.6962 74.7524 40.286C74.8297 39.8758 74.8802 39.3348 74.904 38.663L75.0021 36.0325H79.3983ZM86.0063 36.0325V42.2745H85.1324V40.4554H83.4113C83.3043 40.4554 83.2241 40.4524 83.1706 40.4465L81.9222 42.2745H80.977L82.3591 40.2949C81.9133 40.1463 81.5714 39.8996 81.3336 39.5548C81.0958 39.204 80.977 38.779 80.977 38.2796C80.977 37.5722 81.2029 37.0223 81.6547 36.6299C82.1124 36.2316 82.7277 36.0325 83.5005 36.0325H86.0063ZM81.8776 38.2707C81.8776 38.7344 82.0113 39.0911 82.2789 39.3407C82.5523 39.5845 82.9536 39.7064 83.4827 39.7064H85.1324V36.8083H83.5362C83.0012 36.8083 82.591 36.9331 82.3056 37.1828C82.0203 37.4325 81.8776 37.7951 81.8776 38.2707ZM94.2497 41.4987V43.6923H93.4204V42.2745H88.0433V36.0325H88.9261V41.4987H92.4039V36.0325H93.2867V41.4987H94.2497ZM95.5258 36.0325H96.4086V40.8478L100.1 36.0325H100.921V42.2745H100.047V37.4681L96.3462 42.2745H95.5258V36.0325ZM102.956 36.0325H103.839V40.8478L107.53 36.0325H108.351V42.2745H107.477V37.4681L103.776 42.2745H102.956V36.0325Z" fill="white"/>
</g>
<defs>
<clipPath id="clip0">
<rect width="138" height="46" fill="white"/>
</clipPath>
</defs>
</svg>
