<svg width="24" height="24" viewBox="0 0 24 24" fill="none" xmlns="http://www.w3.org/2000/svg">
<path d="M20 10.6667C20 16.8889 12 22.2222 12 22.2222C12 22.2222 4 16.8889 4 10.6667C4 8.54496 4.84285 6.51012 6.34315 5.00983C7.84344 3.50954 9.87827 2.66669 12 2.66669C14.1217 2.66669 16.1566 3.50954 17.6569 5.00983C19.1571 6.51012 20 8.54496 20 10.6667Z" stroke="#2B2D3A" stroke-linecap="round" stroke-linejoin="round"/>
<path d="M12 13.3333C13.4728 13.3333 14.6667 12.1394 14.6667 10.6667C14.6667 9.19391 13.4728 8 12 8C10.5273 8 9.33337 9.19391 9.33337 10.6667C9.33337 12.1394 10.5273 13.3333 12 13.3333Z" stroke="#2B2D3A" stroke-linecap="round" stroke-linejoin="round"/>
</svg>
