<svg width="68" height="68" viewBox="0 0 68 68" fill="none" xmlns="http://www.w3.org/2000/svg">
<g filter="url(#filter0_d)">
<rect x="8" y="6" width="44" height="44" rx="8" fill="#397DFF"/>
</g>
<path d="M39.2209 15.0997C38.5724 14.423 37.6419 14 36.6549 14H23.3458C22.3307 14 21.4284 14.423 20.7798 15.0715C20.1313 15.72 19.7083 16.6506 19.7083 17.6375V38.3625C19.7083 39.3776 20.1313 40.28 20.7798 40.9285C21.4284 41.577 22.3589 42 23.3458 42H36.6549C37.67 42 38.5724 41.577 39.2209 40.9285C39.8694 40.28 40.2924 39.3494 40.2924 38.3625V17.6657C40.2924 16.6506 39.8694 15.7482 39.2209 15.0997ZM38.8825 38.3625C38.8825 38.9829 38.6288 39.5186 38.234 39.9416C37.8392 40.3364 37.2753 40.5901 36.6549 40.5901H23.3458C22.7254 40.5901 22.1897 40.3364 21.7667 39.9416C21.372 39.5468 21.1182 38.9829 21.1182 38.3625V17.6657C21.1182 17.0453 21.372 16.5096 21.7667 16.0866C22.1615 15.6918 22.7254 15.4381 23.3458 15.4381H36.6549C37.2753 15.4381 37.811 15.6918 38.234 16.0866C38.6288 16.4814 38.8825 17.0453 38.8825 17.6657V38.3625Z" fill="white"/>
<path d="M30 33.4585C30.4049 33.4585 30.7332 33.1302 30.7332 32.7253C30.7332 32.3204 30.4049 31.9922 30 31.9922C29.5951 31.9922 29.2669 32.3204 29.2669 32.7253C29.2669 33.1302 29.5951 33.4585 30 33.4585Z" fill="white"/>
<path d="M30.0011 26.0396C28.1682 26.0396 26.4764 26.8009 25.2639 27.9852C24.0514 29.1977 23.3183 30.8613 23.3183 32.7223C23.3183 34.5552 24.0796 36.247 25.2639 37.4595C26.4764 38.672 28.14 39.4051 30.0011 39.4051C31.8339 39.4051 33.5257 38.6438 34.7382 37.4595C35.9507 36.247 36.6838 34.5833 36.6838 32.7223C36.6838 30.8895 35.9225 29.1977 34.7382 27.9852C33.5257 26.8009 31.8339 26.0396 30.0011 26.0396ZM33.7231 36.4444C32.7644 37.4031 31.4673 37.9952 30.0011 37.9952C28.5348 37.9952 27.2377 37.4031 26.279 36.4444C25.3203 35.4857 24.7282 34.1886 24.7282 32.7223C24.7282 31.2561 25.3203 29.959 26.279 29.0003C27.2377 28.0416 28.5348 27.4494 30.0011 27.4494C31.4391 27.4494 32.7644 28.0416 33.7231 29.0003C34.6818 29.959 35.274 31.2561 35.274 32.7223C35.2458 34.1604 34.6818 35.4857 33.7231 36.4444Z" fill="white"/>
<path d="M30.0002 28.8906C28.9287 28.8906 27.97 29.3136 27.2932 30.0185C26.5883 30.7235 26.1653 31.6822 26.1653 32.7255C26.1653 33.797 26.5883 34.7557 27.2932 35.4324C27.9982 36.1374 28.9569 36.5603 30.0002 36.5603C31.0717 36.5603 32.0304 36.1374 32.7071 35.4324C33.4121 34.7275 33.835 33.7688 33.835 32.7255C33.835 31.654 33.4121 30.6953 32.7071 30.0185C32.0304 29.3136 31.0717 28.8906 30.0002 28.8906ZM31.7202 34.4455C31.2691 34.8967 30.6769 35.1504 30.0002 35.1504C29.3235 35.1504 28.7313 34.8685 28.2801 34.4455C27.829 33.9944 27.5752 33.4022 27.5752 32.7255C27.5752 32.0487 27.8572 31.4566 28.2801 31.0054C28.7313 30.5543 29.3235 30.3005 30.0002 30.3005C30.6769 30.3005 31.2691 30.5825 31.7202 31.0054C32.1714 31.4566 32.4252 32.0487 32.4252 32.7255C32.4252 33.4022 32.1432 33.9944 31.7202 34.4455Z" fill="white"/>
<path d="M29.9996 25.2218C31.1839 25.2218 32.2554 24.7424 33.0449 23.9529C33.8345 23.1634 34.3138 22.0919 34.3138 20.9076C34.3138 19.7233 33.8345 18.6518 33.0449 17.8623C32.2554 17.0727 31.1839 16.5934 29.9996 16.5934C28.8153 16.5934 27.7438 17.0727 26.9543 17.8623C26.1648 18.6518 25.6854 19.7233 25.6854 20.9076C25.6854 22.0919 26.1648 23.1634 26.9543 23.9529C27.7438 24.7424 28.8153 25.2218 29.9996 25.2218ZM27.9694 18.8774C28.477 18.3698 29.2101 18.0315 29.9996 18.0315C30.7892 18.0315 31.5223 18.3416 32.0298 18.8774C32.5374 19.3849 32.8758 20.1181 32.8758 20.9076C32.8758 21.6971 32.5656 22.4302 32.0298 22.9378C31.5223 23.4453 30.7892 23.7837 29.9996 23.7837C29.2101 23.7837 28.477 23.4735 27.9694 22.9378C27.4619 22.4302 27.1235 21.6971 27.1235 20.9076C27.1235 20.1181 27.4337 19.4131 27.9694 18.8774Z" fill="white"/>
<path d="M30 22.5717C30.4512 22.5717 30.8459 22.3743 31.1561 22.0923C31.4663 21.7822 31.6355 21.3874 31.6355 20.9362C31.6355 20.4851 31.4381 20.0903 31.1561 19.7801C30.8459 19.47 30.4512 19.3008 30 19.3008C29.5489 19.3008 29.1541 19.4982 28.8439 19.7801C28.5337 20.0903 28.3646 20.4851 28.3646 20.9362C28.3646 21.3874 28.5337 21.7822 28.8439 22.0923C29.1541 22.4025 29.5489 22.5717 30 22.5717ZM29.6616 20.5979C29.7462 20.5133 29.859 20.4569 30 20.4569C30.1128 20.4569 30.2538 20.5133 30.3102 20.5979C30.3948 20.6825 30.4512 20.7952 30.4512 20.908C30.4512 21.049 30.3948 21.1618 30.3102 21.2182C30.2256 21.3028 30.1128 21.3592 30 21.3592C29.859 21.3592 29.7462 21.3028 29.6898 21.2182C29.6052 21.1336 29.5489 21.0208 29.5489 20.908C29.5489 20.7952 29.6052 20.6825 29.6616 20.5979Z" fill="white"/>
<defs>
<filter id="filter0_d" x="0" y="0" width="68" height="68" filterUnits="userSpaceOnUse" color-interpolation-filters="sRGB">
<feFlood flood-opacity="0" result="BackgroundImageFix"/>
<feColorMatrix in="SourceAlpha" type="matrix" values="0 0 0 0 0 0 0 0 0 0 0 0 0 0 0 0 0 0 127 0"/>
<feOffset dx="4" dy="6"/>
<feGaussianBlur stdDeviation="6"/>
<feColorMatrix type="matrix" values="0 0 0 0 0.223529 0 0 0 0 0.490196 0 0 0 0 1 0 0 0 0.12 0"/>
<feBlend mode="normal" in2="BackgroundImageFix" result="effect1_dropShadow"/>
<feBlend mode="normal" in="SourceGraphic" in2="effect1_dropShadow" result="shape"/>
</filter>
</defs>
</svg>
