<svg width="62" height="62" viewBox="0 0 62 62" fill="none" xmlns="http://www.w3.org/2000/svg">
<g filter="url(#filter0_d)">
<rect x="8" y="6" width="38" height="38" rx="8" fill="#397DFF"/>
</g>
<g clip-path="url(#clip0)">
<path d="M34.9625 13.8599C34.4024 13.2754 33.5988 12.9102 32.7464 12.9102H21.2522C20.3755 12.9102 19.5962 13.2754 19.0361 13.8355C18.476 14.3956 18.1107 15.1993 18.1107 16.0516V33.9505C18.1107 34.8272 18.476 35.6065 19.0361 36.1666C19.5962 36.7267 20.3998 37.092 21.2522 37.092H32.7464C33.6231 37.092 34.4024 36.7267 34.9625 36.1666C35.5226 35.6065 35.8879 34.8029 35.8879 33.9505V16.076C35.8879 15.1993 35.5226 14.42 34.9625 13.8599ZM34.6703 33.9505C34.6703 34.4863 34.4511 34.949 34.1102 35.3143C33.7692 35.6552 33.2822 35.8744 32.7464 35.8744H21.2522C20.7164 35.8744 20.2537 35.6552 19.8884 35.3143C19.5475 34.9733 19.3283 34.4863 19.3283 33.9505V16.076C19.3283 15.5402 19.5475 15.0775 19.8884 14.7122C20.2294 14.3713 20.7164 14.1521 21.2522 14.1521H32.7464C33.2822 14.1521 33.7449 14.3713 34.1102 14.7122C34.4511 15.0532 34.6703 15.5402 34.6703 16.076V33.9505V33.9505Z" fill="white"/>
<path d="M26.999 29.7152C27.3487 29.7152 27.6322 29.4317 27.6322 29.082C27.6322 28.7323 27.3487 28.4489 26.999 28.4489C26.6493 28.4489 26.3658 28.7323 26.3658 29.082C26.3658 29.4317 26.6493 29.7152 26.999 29.7152Z" fill="white"/>
<path d="M27 23.308C25.4171 23.308 23.956 23.9655 22.9088 24.9883C21.8617 26.0354 21.2285 27.4722 21.2285 29.0795C21.2285 30.6624 21.886 32.1235 22.9088 33.1706C23.956 34.2178 25.3928 34.851 27 34.851C28.5829 34.851 30.044 34.1934 31.0912 33.1706C32.1383 32.1235 32.7715 30.6867 32.7715 29.0795C32.7715 27.4966 32.114 26.0354 31.0912 24.9883C30.044 23.9655 28.5829 23.308 27 23.308ZM30.2145 32.294C29.3865 33.1219 28.2663 33.6333 27 33.6333C25.7337 33.6333 24.6135 33.1219 23.7855 32.294C22.9575 31.466 22.4461 30.3458 22.4461 29.0795C22.4461 27.8132 22.9575 26.6929 23.7855 25.865C24.6135 25.037 25.7337 24.5256 27 24.5256C28.242 24.5256 29.3865 25.037 30.2145 25.865C31.0425 26.6929 31.5539 27.8132 31.5539 29.0795C31.5295 30.3214 31.0425 31.466 30.2145 32.294Z" fill="white"/>
<path d="M26.9992 25.7703C26.0738 25.7703 25.2458 26.1355 24.6613 26.7444C24.0525 27.3532 23.6873 28.1811 23.6873 29.0822C23.6873 30.0076 24.0525 30.8355 24.6613 31.42C25.2702 32.0288 26.0981 32.3941 26.9992 32.3941C27.9246 32.3941 28.7525 32.0288 29.337 31.42C29.9458 30.8112 30.3111 29.9832 30.3111 29.0822C30.3111 28.1568 29.9458 27.3288 29.337 26.7444C28.7525 26.1355 27.9246 25.7703 26.9992 25.7703ZM28.4847 30.5677C28.095 30.9573 27.5836 31.1765 26.9992 31.1765C26.4147 31.1765 25.9033 30.9329 25.5137 30.5677C25.124 30.178 24.9049 29.6666 24.9049 29.0822C24.9049 28.4977 25.1484 27.9863 25.5137 27.5967C25.9033 27.207 26.4147 26.9879 26.9992 26.9879C27.5836 26.9879 28.095 27.2314 28.4847 27.5967C28.8743 27.9863 29.0935 28.4977 29.0935 29.0822C29.0935 29.6666 28.8499 30.178 28.4847 30.5677Z" fill="white"/>
<path d="M26.9987 22.6002C28.0215 22.6002 28.9469 22.1862 29.6288 21.5044C30.3106 20.8225 30.7246 19.8971 30.7246 18.8743C30.7246 17.8515 30.3106 16.9262 29.6288 16.2443C28.9469 15.5624 28.0215 15.1484 26.9987 15.1484C25.9759 15.1484 25.0505 15.5624 24.3687 16.2443C23.6868 16.9262 23.2728 17.8515 23.2728 18.8743C23.2728 19.8971 23.6868 20.8225 24.3687 21.5044C25.0505 22.1862 25.9759 22.6002 26.9987 22.6002ZM25.2454 17.121C25.6837 16.6826 26.3169 16.3904 26.9987 16.3904C27.6806 16.3904 28.3137 16.6583 28.7521 17.121C29.1904 17.5593 29.4827 18.1925 29.4827 18.8743C29.4827 19.5562 29.2148 20.1894 28.7521 20.6277C28.3137 21.066 27.6806 21.3583 26.9987 21.3583C26.3169 21.3583 25.6837 21.0904 25.2454 20.6277C24.807 20.1894 24.5148 19.5562 24.5148 18.8743C24.5148 18.1925 24.7827 17.5837 25.2454 17.121Z" fill="white"/>
<path d="M26.999 20.313C27.3886 20.313 27.7296 20.1426 27.9974 19.899C28.2653 19.6312 28.4114 19.2902 28.4114 18.9006C28.4114 18.511 28.2409 18.17 27.9974 17.9021C27.7296 17.6343 27.3886 17.4882 26.999 17.4882C26.6093 17.4882 26.2684 17.6586 26.0005 17.9021C25.7327 18.17 25.5865 18.511 25.5865 18.9006C25.5865 19.2902 25.7327 19.6312 26.0005 19.899C26.2684 20.1669 26.6093 20.313 26.999 20.313ZM26.7068 18.6084C26.7798 18.5353 26.8772 18.4866 26.999 18.4866C27.0964 18.4866 27.2182 18.5353 27.2669 18.6084C27.3399 18.6814 27.3886 18.7788 27.3886 18.8762C27.3886 18.998 27.3399 19.0954 27.2669 19.1441C27.1938 19.2172 27.0964 19.2659 26.999 19.2659C26.8772 19.2659 26.7798 19.2172 26.7311 19.1441C26.658 19.0711 26.6093 18.9737 26.6093 18.8762C26.6093 18.7788 26.658 18.6814 26.7068 18.6084Z" fill="white"/>
</g>
<defs>
<filter id="filter0_d" x="0" y="0" width="62" height="62" filterUnits="userSpaceOnUse" color-interpolation-filters="sRGB">
<feFlood flood-opacity="0" result="BackgroundImageFix"/>
<feColorMatrix in="SourceAlpha" type="matrix" values="0 0 0 0 0 0 0 0 0 0 0 0 0 0 0 0 0 0 127 0"/>
<feOffset dx="4" dy="6"/>
<feGaussianBlur stdDeviation="6"/>
<feColorMatrix type="matrix" values="0 0 0 0 0.223529 0 0 0 0 0.490196 0 0 0 0 1 0 0 0 0.12 0"/>
<feBlend mode="normal" in2="BackgroundImageFix" result="effect1_dropShadow"/>
<feBlend mode="normal" in="SourceGraphic" in2="effect1_dropShadow" result="shape"/>
</filter>
<clipPath id="clip0">
<rect width="24.1818" height="24.1818" fill="white" transform="translate(14.9082 12.9102)"/>
</clipPath>
</defs>
</svg>
