<svg width="24" height="24" viewBox="0 0 24 24" fill="none" xmlns="http://www.w3.org/2000/svg">
<path d="M16.122 4.12203C14.6684 4.11672 13.2361 4.52521 12 5.28914C10.7639 4.52521 9.33157 4.11672 7.87798 4.12203C3.53316 4.12203 0 7.65519 0 12C0 16.3448 3.53316 19.878 7.87798 19.878C9.33157 19.8833 10.7639 19.4748 12 18.7109C13.2361 19.4748 14.6684 19.8833 16.122 19.878C20.4668 19.878 24 16.3448 24 12C24 7.65519 20.4668 4.12203 16.122 4.12203ZM7.87798 18.8223C4.11141 18.8223 1.0557 15.7666 1.0557 12.0053C1.0557 8.24405 4.11141 5.18304 7.87798 5.18304C8.98674 5.18304 10.0796 5.44829 11.0557 5.96818C7.72414 8.76394 7.28913 13.7295 10.0849 17.061C10.382 17.4112 10.7056 17.7348 11.0557 18.0318C10.0796 18.5517 8.98674 18.8223 7.87798 18.8223ZM12 17.4271C9.00265 15.1512 8.41379 10.8753 10.6897 7.878C11.0663 7.38463 11.5066 6.94431 12 6.56765C14.9973 8.84352 15.5862 13.1194 13.3103 16.1167C12.9337 16.6154 12.4934 17.0557 12 17.4271ZM16.122 18.817C15.0133 18.817 13.9204 18.5517 12.9443 18.0318C16.2759 15.2361 16.7109 10.2706 13.9151 6.93901C13.618 6.58887 13.2944 6.26527 12.9443 5.96818C13.9257 5.44829 15.0133 5.17773 16.122 5.18304C19.8886 5.18304 22.939 8.23874 22.939 12.0053C22.939 15.7719 19.8886 18.8223 16.122 18.817Z" fill="#2B2D3A"/>
</svg>
